<?xml version="1.0" encoding="UTF-8" standalone="no"?>
<svg xmlns:dc="http://purl.org/dc/elements/1.1/" xmlns:cc="http://creativecommons.org/ns#" xmlns:rdf="http://www.w3.org/1999/02/22-rdf-syntax-ns#" xmlns:svg="http://www.w3.org/2000/svg" xmlns="http://www.w3.org/2000/svg" viewBox="0 0 315.78268 549.2973" height="549.2973" width="315.78268" xml:space="preserve" id="svg2" version="1.1">
	<metadata id="metadata8">
		<RDF>
			<Work rdf:about="">
				<format>
					image/svg+xml
				</format>
				<type rdf:resource="http://purl.org/dc/dcmitype/StillImage" />
			</Work>
		</RDF>
	</metadata>
	<defs id="defs6">
		<clipPath id="clipPath18" clipPathUnits="userSpaceOnUse">
			<path id="path16" d="M 0,411.973 H 236.837 V 0 H 0 Z" />
		</clipPath>
	</defs>
	<g transform="matrix(1.3333333,0,0,-1.3333333,0,549.29733)" id="g10">
		<g id="g12">
			<g clip-path="url(#clipPath18)" id="g14">
				<g transform="translate(186.8564,155.9866)" id="g20">
					<path id="path22" style="fill:#6f9d97;fill-opacity:1;fill-rule:nonzero;stroke:none" d="m 0,0 c -13.896,0 -27.722,5.76 -37.606,17.027 l -136.837,155.987 c -18.21,20.758 -16.144,52.349 4.614,70.559 20.76,18.211 52.35,16.144 70.56,-4.614 L 37.567,82.973 C 55.778,62.214 53.712,30.624 32.953,12.413 23.462,4.087 11.706,0 0,0" />
				</g>
				<g transform="translate(49.9805,2e-4)" id="g24">
					<path id="path26" style="fill:#6f9d97;fill-opacity:1;fill-rule:nonzero;stroke:none" d="m 0,0 c -11.707,0 -23.46,4.086 -32.953,12.413 -20.758,18.211 -22.824,49.802 -4.614,70.561 L 99.27,238.959 c 18.209,20.759 49.801,22.825 70.559,4.615 20.759,-18.211 22.825,-49.802 4.614,-70.56 L 37.607,17.027 C 27.724,5.762 13.895,0 0,0" />
				</g>
			</g>
		</g>
	</g>
</svg>
