<svg xmlns="http://www.w3.org/2000/svg" xmlns:xlink="http://www.w3.org/1999/xlink" width="0.95cm" height="0.95cm">
	<path fill-rule="evenodd" fill="rgb(240, 245, 251)" d="M18.000,0.000 C27.941,0.000 36.000,8.059 36.000,18.000 C36.000,27.941 27.941,36.000 18.000,36.000 C8.059,36.000 -0.000,27.941 -0.000,18.000 C-0.000,8.059 8.059,0.000 18.000,0.000 Z" />
	<path fill-rule="evenodd" fill="rgb(0, 47, 42)" d="M12.000,26.006 C12.000,25.174 12.000,10.588 12.000,10.015 C12.000,9.271 12.775,8.718 13.540,9.153 C14.154,9.501 26.421,16.531 27.468,17.132 C28.156,17.527 28.144,18.469 27.468,18.865 C26.714,19.306 14.401,26.371 13.509,26.862 C12.856,27.222 12.000,26.825 12.000,26.006 Z" />
</svg>
