<?xml version="1.0" encoding="UTF-8"?>
<svg width="73px" height="96px" viewBox="0 0 73 96" version="1.1" xmlns="http://www.w3.org/2000/svg" xmlns:xlink="http://www.w3.org/1999/xlink" xmlns:sketch="http://www.bohemiancoding.com/sketch/ns">
	<g stroke="none" stroke-width="1" fill="none" fill-rule="evenodd">
		<g>
			<path d="M57.7675015,64.4287612 C59.0164546,63.4768234 60.2115579,62.4342052 61.3428816,61.3028816 C71.4553274,51.1904357 74.4803442,35.9820871 69.0073412,22.7696173 C63.5343381,9.55714743 50.641158,0.942595538 36.34,0.943 C16.8128681,0.943 0.983,16.7728681 0.983,36.3 C0.982727437,45.9374274 4.89476172,54.9354503 11.4897523,61.4541311 C11.4964728,61.4845271 11.5,61.5 11.5,61.5 C11.5,61.5 11.5211751,61.5084154 11.5624505,61.5257809 C14.4267424,64.3406224 17.7932637,66.6893021 21.5621975,68.4224265 C24.0706036,70.724368 26.8134008,73.7020345 29.5,77.5 C34.831,85.036 38,95.5 38,95.5 C37.9999868,95.4999903 39.4761101,86.01 45.1621101,77.5 C49.5153607,70.9882817 54.5927419,67.3327371 57.7675015,64.4287612 Z" id="Shape" stroke-opacity="1" stroke="#FFFFFF" fill-opacity="1" fill="#E23E1D">
			</path>
			<!--
			<path d="M27.452,50.531 L27.452,23.384 C27.4382887,22.7613224 27.7683751,22.1816303 28.3108705,21.8756662 C28.853366,21.5697021 29.5202216,21.5871251 30.046,21.921 C31.08,22.512 51.732,34.447 53.494,35.467 C54.0259048,35.7653289 54.355242,36.3276452 54.355242,36.9375 C54.355242,37.5473548 54.0259048,38.1096711 53.494,38.408 C52.225,39.157 31.494,51.152 29.994,51.985 C29.4731587,52.2971204 28.8243803,52.303708 28.2973086,52.002228 C27.770237,51.7007479 27.4470091,51.1381819 27.452,50.531 L27.452,50.531 Z" id="play" fill="#FFFFFF">
			</path>
			-->
		</g>
	</g>
</svg>
