<?xml version="1.0" encoding="UTF-8" standalone="no"?>
<svg xmlns:dc="http://purl.org/dc/elements/1.1/" xmlns:cc="http://creativecommons.org/ns#" xmlns:rdf="http://www.w3.org/1999/02/22-rdf-syntax-ns#" xmlns:svg="http://www.w3.org/2000/svg" xmlns="http://www.w3.org/2000/svg" viewBox="0 0 160.33467 160.336" height="160.336" width="160.33467" xml:space="preserve" id="svg2" version="1.1">
	<metadata id="metadata8">
		<RDF>
			<Work rdf:about="">
				<format>
					image/svg+xml
				</format>
				<type rdf:resource="http://purl.org/dc/dcmitype/StillImage" />
			</Work>
		</RDF>
	</metadata>
	<defs id="defs6">
		<clipPath id="clipPath18" clipPathUnits="userSpaceOnUse">
			<path id="path16" d="M 0,120.252 H 120.251 V 0 H 0 Z" />
		</clipPath>
	</defs>
	<g transform="matrix(1.3333333,0,0,-1.3333333,0,160.336)" id="g10">
		<g id="g12">
			<g clip-path="url(#clipPath18)" id="g14">
				<g transform="translate(90.8945,86.5611)" id="g20">
					<path id="path22" style="fill:#ffffff;fill-opacity:1;fill-rule:nonzero;stroke:none" d="m 0,0 c 1.108,0 2.217,0.423 3.063,1.268 l 8.683,8.681 c 1.693,1.692 1.693,4.436 0,6.128 -1.691,1.692 -4.434,1.694 -6.128,0 L -3.064,7.397 C -4.757,5.705 -4.757,2.961 -3.065,1.269 -2.219,0.423 -1.109,0 0,0 m -64.602,-54.143 -8.683,-8.679 c -1.694,-1.693 -1.694,-4.436 -0.001,-6.129 0.846,-0.846 1.955,-1.27 3.064,-1.27 1.109,0 2.218,0.424 3.065,1.269 l 8.683,8.681 c 1.693,1.692 1.693,4.437 0,6.128 -1.693,1.693 -4.435,1.694 -6.128,0 m 89.625,32.041 H 12.745 c -2.393,0 -4.333,-1.94 -4.333,-4.334 0,-2.392 1.94,-4.333 4.333,-4.333 h 12.278 c 2.392,0 4.333,1.941 4.333,4.333 0,2.394 -1.941,4.334 -4.333,4.334 m -94.973,-4.334 c 0,2.394 -1.942,4.334 -4.334,4.334 h -12.278 c -2.393,0 -4.333,-1.94 -4.333,-4.334 0,-2.392 1.94,-4.333 4.333,-4.333 h 12.278 c 2.392,0 4.334,1.941 4.334,4.333 M 3.065,-54.14 c -1.691,1.693 -4.436,1.693 -6.127,0 -1.693,-1.691 -1.693,-4.435 0,-6.128 L 5.62,-68.95 c 0.845,-0.846 1.954,-1.27 3.064,-1.27 1.109,0 2.218,0.424 3.064,1.27 1.692,1.692 1.692,4.436 0,6.128 z M -64.602,1.272 c 0.846,-0.846 1.956,-1.27 3.065,-1.27 1.108,0 2.217,0.424 3.063,1.27 1.693,1.691 1.693,4.435 0,6.128 l -8.681,8.681 c -1.691,1.692 -4.437,1.692 -6.127,0 -1.693,-1.692 -1.693,-4.436 0,-6.128 z m 33.835,-66.888 c -2.393,0 -4.333,-1.94 -4.333,-4.334 v -12.278 c 0,-2.393 1.94,-4.333 4.333,-4.333 2.394,0 4.333,1.94 4.333,4.333 v 12.278 c 0,2.394 -1.939,4.334 -4.333,4.334 m 0,78.362 c 2.394,0 4.333,1.94 4.333,4.334 v 12.277 c 0,2.393 -1.939,4.334 -4.333,4.334 -2.393,0 -4.333,-1.941 -4.333,-4.334 V 17.08 c 0,-2.394 1.94,-4.334 4.333,-4.334 m 0,-63.196 c -13.341,0 -24.194,10.854 -24.194,24.196 0,13.339 10.853,24.194 24.194,24.194 13.341,0 24.196,-10.855 24.196,-24.194 0,-13.342 -10.855,-24.196 -24.196,-24.196 m 0,57.057 c -18.121,0 -32.861,-14.742 -32.861,-32.861 0,-18.122 14.74,-32.862 32.861,-32.862 18.121,0 32.862,14.74 32.862,32.862 0,18.119 -14.741,32.861 -32.862,32.861" />
				</g>
			</g>
		</g>
	</g>
</svg>
