<?xml version="1.0" encoding="utf-8"?>
<!-- Generator: Adobe Illustrator 23.0.0, SVG Export Plug-In . SVG Version: 6.00 Build 0) -->
<svg version="1.1" id="_x2014_ÎÓÈ_x5F_1" xmlns="http://www.w3.org/2000/svg" xmlns:xlink="http://www.w3.org/1999/xlink" x="0px" y="0px" viewBox="0 0 1400 1400" style="enable-background:new 0 0 1400 1400;fill:#FFFFFF;" xml:space="preserve">
	<g>
		<g>
			<g>
				<g>
					<path d="M868.4,895.6c-8.3,0.2-16.1-2.9-22.1-8.7c-6-5.7-9.4-13.5-9.5-21.8c-0.2-8.3,2.9-16.1,8.7-22.1
					c75.9-78.8,73.5-204.7-5.3-280.5c-6-5.8-9.4-13.5-9.5-21.8c-0.2-8.3,2.9-16.1,8.7-22.1c5.8-6,13.5-9.4,21.8-9.5
					c8.3-0.2,16.1,2.9,22.1,8.7c103.5,99.6,106.6,264.9,6.9,368.3C884.4,892,876.7,895.4,868.4,895.6z" />
				</g>
				<g>
					<path d="M962.4,1040.7c-8.3,0.2-16.1-2.9-22.1-8.7c-12.3-11.9-12.7-31.6-0.8-43.9c75.4-78.3,115.8-181.4,113.8-290.4
					c-2-109-46.3-210.5-124.6-285.9c-12.3-11.9-12.7-31.6-0.8-43.9c5.8-6,13.5-9.3,21.8-9.5c8.3-0.2,16.1,2.9,22.1,8.7
					c90.2,86.9,141.2,203.9,143.6,329.5c2.4,125.6-44.2,244.5-131.1,334.7C978.4,1037.2,970.6,1040.6,962.4,1040.7z" />
				</g>
				<g>
					<path d="M1097.6,1172c-11.5,0.2-22.3-4-30.6-12c-17.1-16.4-17.6-43.7-1.2-60.7c104.3-108.3,160.2-251,157.4-401.8
					c-2.8-150.8-64.1-291.3-172.4-395.6c-17.1-16.4-17.5-43.7-1.1-60.8c8-8.3,18.7-12.9,30.1-13.1c11.5-0.2,22.3,4,30.6,12
					c124.8,120.2,195.4,282.1,198.7,455.9c3.3,173.8-61.1,338.2-181.3,463C1119.8,1167.2,1109.1,1171.8,1097.6,1172z" />
				</g>
			</g>
		</g>
		<g>
			<path d="M346.7,516.2v367.6c0,13.1,6.8,25.2,18,32.1l269.4,164.6c25,15.3,57.2-2.7,57.2-32.1V700V351.6
			c0-29.3-32.1-47.4-57.2-32.1L364.7,484.2C353.6,491,346.7,503.1,346.7,516.2z" />
			<path d="M235.2,499H128.4c-20.8,0-37.6,16.8-37.6,37.6v333.5c0,20.8,16.8,37.6,37.6,37.6h106.8c20.8,0,37.6-16.8,37.6-37.6V536.6
			C272.7,515.8,255.9,499,235.2,499z" />
		</g>
	</g>
</svg>
