<?xml version="1.0" encoding="utf-8"?>
<!-- Generator: Adobe Illustrator 23.0.0, SVG Export Plug-In . SVG Version: 6.00 Build 0) -->
<svg version="1.1" id="_x2014_ÎÓÈ_x5F_1" xmlns="http://www.w3.org/2000/svg" xmlns:xlink="http://www.w3.org/1999/xlink" x="0px" y="0px" viewBox="0 0 1200 1200" style="enable-background:new 0 0 1200 1200;fill:#FFFFFF;" xml:space="preserve">
	<style type="text/css">
		.st0{fill:#FFFFFF;}
	</style>
	<g>
		<path class="st0" d="M986.7,332.4H857.5l-26.3-54.6c-21-43.6-65-71.3-113.4-71.3H500.5c-48.3,0-92.4,27.7-113.4,71.3l-26.3,54.6
		H231.6c-69.2,0-125.9,56.6-125.9,125.9v440.5c0,69.2,56.6,125.9,125.9,125.9h755.1c69.2,0,125.9-56.6,125.9-125.9V458.3
		C1112.6,389,1055.9,332.4,986.7,332.4z M609.2,930.2c-139,0-251.7-112.7-251.7-251.7c0-139,112.7-251.7,251.7-251.7
		s251.7,112.7,251.7,251.7C860.9,817.5,748.2,930.2,609.2,930.2z" />
		<circle class="st0" cx="609.2" cy="678.5" r="163.6" />
	</g>
</svg>
