<?xml version="1.0" encoding="utf-8"?>
<!-- Generator: Adobe Illustrator 23.0.0, SVG Export Plug-In . SVG Version: 6.00 Build 0) -->
<svg version="1.1" id="Layer_4" xmlns="http://www.w3.org/2000/svg" xmlns:xlink="http://www.w3.org/1999/xlink" x="0px" y="0px" viewBox="0 0 1200 1200" style="enable-background:new 0 0 1200 1200;fill:#FFFFFF;" xml:space="preserve">
	<style type="text/css">
		.st0{fill:#FFFFFF;}
	</style>
	<g>
		<path class="st0" d="M1051.3,419.7c-23.7-57.5-57.7-109.2-101-153.6c-43.4-44.4-93.9-79.4-150.1-103.8
		c-58.4-25.3-120.3-38.1-184.2-38.1c-63.9,0-125.8,12.8-184.2,38.1c-56.3,24.4-106.8,59.3-150.1,103.8c-43.3,44.4-77.3,96-101,153.6
		c-24.6,59.5-37,122.7-37,187.8s12.4,128.3,37,187.8c23.7,57.5,57.7,109.2,101,153.6c43.4,44.4,93.9,79.4,150.1,103.8
		c58.4,25.3,120.3,38.1,184.2,38.1c63.9,0,125.8-12.8,184.2-38.1c56.3-24.4,106.8-59.3,150.1-103.8c43.3-44.4,77.3-96,101-153.6
		c24.6-59.5,37-122.7,37-187.8S1075.8,479.2,1051.3,419.7z M615.9,1010.7c-216.3,0-392.3-180.9-392.3-403.3s176-403.3,392.3-403.3
		c216.3,0,392.3,180.9,392.3,403.3S832.3,1010.7,615.9,1010.7z" />
		<path class="st0" d="M474.1,507.8c31,0,59.5,5.3,84.7,15.6l17.4,7.1l28.3-69.9l-17.8-7.3c-34.3-14-72.6-21.1-114-21.1
		c-56.4,0-101.4,18.7-133.6,55.6c-28.8,33.5-43.4,77.6-43.4,131.3c0,54.1,14.9,98.9,44.4,133c30.1,34.8,70.2,52.5,119.4,52.5
		c48.8,0,91.7-7.8,127.4-23.3l16.2-7L579,701.4l-19.2,9.3c-25.4,12.3-56.1,18.6-91.2,18.6c-30.9,0-53.1-11.6-70-36.7
		c-13.8-20.2-20.7-44.4-20.7-72c0-30.5,6.4-55.8,19-75.2C413.2,519.8,437.8,507.8,474.1,507.8z" />
		<path class="st0" d="M659.2,487.9c-28.8,33.5-43.4,77.6-43.4,131.3c0,54.1,14.9,98.9,44.4,133c30.1,34.8,70.2,52.5,119.4,52.5
		c48.8,0,91.7-7.8,127.4-23.3l16.2-7l-24.2-73.1l-19.2,9.3c-25.4,12.3-56.1,18.6-91.2,18.6c-30.9,0-53.1-11.6-70-36.7
		c-13.8-20.2-20.7-44.4-20.7-72c0-30.5,6.4-55.8,19-75.2c16.4-25.6,41-37.6,77.3-37.6c31,0,59.5,5.3,84.7,15.6l17.4,7.1l28.3-69.9
		l-17.8-7.3c-34.3-14-72.6-21.1-114-21.1C736.3,432.3,691.4,451,659.2,487.9z" />
	</g>
</svg>
