<?xml version="1.0" encoding="utf-8"?>
<!-- Generator: Adobe Illustrator 23.0.0, SVG Export Plug-In . SVG Version: 6.00 Build 0) -->
<svg version="1.1" id="Layer_1" xmlns="http://www.w3.org/2000/svg" xmlns:xlink="http://www.w3.org/1999/xlink" x="0px" y="0px" viewBox="0 0 200 200" style="enable-background:new 0 0 200 200;fill: #FFFFFF;" xml:space="preserve">
	<g>
		<g>
			<path d="M144.6,56c-5,0-10.4,1.3-10.4,4.1c0,2.8,5.4,4.1,10.4,4.1c5,0,10.4-1.3,10.4-4.1C155,57.3,149.6,56,144.6,56z M144.6,62.4
			c-5.7,0-8.6-1.6-8.6-2.3c0-0.7,2.9-2.3,8.6-2.3c5.7,0,8.6,1.6,8.6,2.3C153.2,60.8,150.2,62.4,144.6,62.4z" />
			<path d="M181.2,92.2c-9.4-7.5-14.7-18.2-17.2-32.1v0c0-5.5-8.7-9.9-19.4-9.9c-10.7,0-19.4,4.4-19.4,9.9
			c-2.5,13.9-7.8,24.6-17.2,32.1c-1.6,1.2-0.5,3.7,1.5,3.5c2.7-0.3,6.7-1.3,12.2-3.8c2.5-1.1,8-3,10.4-2.6c3.5,0.6,5,5.8,5,5.8
			s3.6,9.6,7.4,9.6c3.8,0,7.4-9.6,7.4-9.6s1.4-5.1,5-5.8c2.5-0.4,7.9,1.4,10.4,2.6c5.6,2.4,9.5,3.4,12.2,3.8
			C181.7,95.9,182.7,93.5,181.2,92.2z M156.6,63.7c0,0.3,0.1,0.6,0.1,0.9c0.1,0.7,0.2,1.4,0.4,2.1c0.3,1.4,0.8,2.7,1.7,4
			c-0.7-0.3-1.3-0.7-1.9-1.2c-0.6-0.5-1.2-1-1.7-1.6c-0.5-0.6-1-1.2-1.5-1.8c-0.2-0.3-0.4-0.6-0.6-0.9c-1.9,0.6-4.1,0.9-6.4,1.1
			L144.6,79l-2.1-12.8c-2.7-0.2-5.2-0.6-7.4-1.4c0,0,0,0.1,0,0.1c-0.2,0.4-0.4,0.8-0.6,1.2c-0.4,0.8-0.9,1.5-1.4,2.2
			c-0.5,0.7-1,1.4-1.6,2c-0.6,0.6-1.2,1.2-1.9,1.6c0.9-1.4,1.2-3,1.5-4.5c0.1-0.8,0.2-1.5,0.2-2.3c0-0.4,0-0.8,0-1.2
			c0-0.4,0-0.8-0.1-1.1c-1.4-1-2.3-2-2.3-2.9c0-1.1,1.4-2.5,3.6-3.7c3.1-1.6,7.5-2.5,12-2.5c4.5,0,8.9,0.9,12,2.5
			c2.2,1.1,3.6,2.6,3.6,3.7C160.2,61.2,158.8,62.6,156.6,63.7z" />
		</g>
		<g>
			<path d="M103.9,107.5c-6.5,0-13.5,1.3-13.5,4.3c0,2.9,7,4.3,13.5,4.3c6.5,0,13.5-1.3,13.5-4.3
			C117.4,108.8,110.4,107.5,103.9,107.5z M103.9,114.1c-7.3,0-11.1-1.7-11.1-2.4c0-0.7,3.8-2.4,11.1-2.4c7.3,0,11.1,1.7,11.1,2.4
			C115,112.5,111.2,114.1,103.9,114.1z" />
			<path d="M151.3,145.3c-12.1-7.9-19.1-19-22.3-33.5c0,0,0,0,0,0c0-5.7-11.2-10.3-25.1-10.3c-13.9,0-25.1,4.6-25.1,10.3
			c-3.2,14.5-10.2,25.7-22.3,33.5c-2,1.3-0.6,3.9,1.9,3.7c3.5-0.3,8.6-1.4,15.8-3.9c3.3-1.2,10.3-3.1,13.5-2.7c4.6,0.7,6.5,6,6.5,6
			s4.7,10,9.6,10c5,0,9.6-10,9.6-10s1.9-5.4,6.5-6c3.2-0.5,10.2,1.5,13.5,2.7c7.2,2.6,12.3,3.6,15.8,3.9
			C151.9,149.2,153.3,146.6,151.3,145.3z M119.5,115.6c0,0.3,0.1,0.6,0.1,0.9c0.1,0.7,0.3,1.5,0.5,2.2c0.4,1.4,1,2.9,2.2,4.1
			c-0.9-0.3-1.7-0.8-2.5-1.3c-0.8-0.5-1.5-1.1-2.2-1.7c-0.7-0.6-1.3-1.2-2-1.9c-0.3-0.3-0.6-0.6-0.8-0.9c-2.5,0.6-5.3,1-8.3,1.1
			l-2.7,13.3l-2.7-13.3c-3.4-0.2-6.7-0.7-9.6-1.4c0,0,0,0.1-0.1,0.1c-0.2,0.4-0.5,0.8-0.8,1.2c-0.5,0.8-1.1,1.6-1.8,2.3
			c-0.6,0.7-1.3,1.5-2.1,2.1c-0.8,0.6-1.6,1.2-2.5,1.7c1.1-1.5,1.6-3.1,1.9-4.7c0.1-0.8,0.2-1.6,0.3-2.4c0-0.4,0-0.8,0-1.2
			c0-0.4,0-0.8-0.1-1.1c-1.8-1-2.9-2.1-2.9-3c0-1.1,1.8-2.6,4.7-3.8c4-1.7,9.7-2.6,15.6-2.6c5.9,0,11.5,0.9,15.6,2.6
			c2.9,1.2,4.7,2.7,4.7,3.8C124.1,112.9,122.3,114.4,119.5,115.6z" />
		</g>
		<g>
			<path d="M49.7,60.9c-4.8,0-10,1.2-10,4c0,2.7,5.2,4,10,4c4.8,0,10-1.2,10-4C59.8,62.1,54.6,60.9,49.7,60.9z M49.7,67
			c-5.5,0-8.3-1.5-8.3-2.2c0-0.7,2.8-2.2,8.3-2.2c5.5,0,8.3,1.5,8.3,2.2C58,65.5,55.2,67,49.7,67z" />
			<path d="M85,95.7c-9-7.3-14.2-17.6-16.6-30.9c0-5.3-8.4-9.5-18.7-9.5c-10.3,0-18.7,4.3-18.7,9.5c-2.4,13.4-7.6,23.7-16.6,30.9
			c-1.5,1.2-0.5,3.6,1.4,3.4c2.6-0.3,6.4-1.3,11.8-3.6c2.5-1.1,7.7-2.9,10.1-2.5c3.4,0.6,4.8,5.6,4.8,5.6s3.5,9.2,7.2,9.2
			c3.7,0,7.2-9.2,7.2-9.2s1.4-4.9,4.8-5.6c2.4-0.4,7.6,1.4,10.1,2.5c5.4,2.4,9.2,3.3,11.8,3.6C85.5,99.3,86.5,96.9,85,95.7z
			 M61.8,69c0.1,0.7,0.2,1.3,0.4,2c0.3,1.3,0.8,2.6,1.6,3.8c-0.7-0.3-1.3-0.7-1.9-1.2c-0.6-0.5-1.1-1-1.6-1.6
			c-0.5-0.6-1-1.1-1.5-1.7c-0.2-0.2-0.4-0.5-0.6-0.8c-1.9,0.6-4,1-6.2,1.1l-1.9,12.1l-1.9-12.1c-2.6-0.1-5.1-0.6-7.3-1.3
			c-0.2,0.3-0.3,0.6-0.5,0.9c-0.4,0.7-0.8,1.5-1.3,2.2c-0.5,0.7-1,1.4-1.6,2c-0.6,0.6-1.2,1.1-1.9,1.6c0.8-1.4,1.2-2.8,1.4-4.3
			c0.1-0.7,0.2-1.5,0.2-2.2c0-0.4,0-0.7,0-1.1c0-0.2,0-0.4,0-0.5c-1.6-1-2.6-2.1-2.6-3c0-1.1,1.4-2.4,3.5-3.5
			c3-1.5,7.2-2.4,11.6-2.4c4.4,0,8.6,0.9,11.6,2.4c2.1,1.1,3.5,2.5,3.5,3.5c0,1-1.2,2.3-3.1,3.3C61.7,68.4,61.8,68.7,61.8,69z" />
		</g>
		<ellipse cx="44.3" cy="122.4" rx="7.9" ry="4.4" />
		<ellipse cx="163.9" cy="115.4" rx="7.9" ry="4.4" />
		<ellipse cx="96" cy="81.6" rx="7.9" ry="4.4" />
		<ellipse cx="64" cy="104.7" rx="4.5" ry="2.5" />
		<ellipse cx="79.2" cy="163.1" rx="4.5" ry="2.5" />
		<ellipse cx="155.3" cy="130.7" rx="4.5" ry="2.5" />
		<ellipse cx="128.2" cy="98.9" rx="4.5" ry="2.5" />
	</g>
</svg>
