<?xml version="1.0" encoding="utf-8"?>
<!-- Generator: Adobe Illustrator 23.0.0, SVG Export Plug-In . SVG Version: 6.00 Build 0) -->
<svg version="1.1" id="Layer_1" xmlns="http://www.w3.org/2000/svg" xmlns:xlink="http://www.w3.org/1999/xlink" x="0px" y="0px" viewBox="0 0 200 200" style="enable-background:new 0 0 200 200;fill: #FFFFFF;" xml:space="preserve">
	<path d="M122.1,113.2c-1.6-0.3-3.3-0.4-5.1-0.6v-7.1c0-2.4-11-2.4-11,0v11.6l-8.3-5.7c-1.3,0-2.6,0-3.9,0c-3.6,0-7.1,0.1-10.5,0.2
	v-7.7l16.6,2.5l-6.8-16l4.8,0.9L86,53.4l4.2,0.8L76.5,22.2l-12,28.8l4.4-1l-8.3,26.2l5.6,13.1l5,11.6l-6.1-1.1l1.9,6l5.4-1.5v8
	c-1.1,0.1-2.2,0.3-3.2,0.4l2.9,9.2c6.1,0.7,13.6,1.2,21.7,1.2c10,0,19.1-0.7,25.7-1.7L122.1,113.2z" />
	<path d="M55.2,91.3l4.7,0.9L44.6,56.4L31.2,88.7l4.9-1.1l-12.4,39.2l6.3-1.5l-8.9,28l19-2.7v15.4l-5.1-6.3c-0.6,0.2-1.2,0.4-1.7,0.5
	c-5.4,1.8-8.7,4.1-8.7,6.6c0,6,18.7,10.8,41.8,10.8c23.1,0,41.8-4.9,41.8-10.8c0-2.2-2.5-4.3-6.9-6c-1.9-0.8-4.2-1.4-6.8-2.1v-8.8
	c0-1.9-3.9-2.8-7.8-2.8c-3.9,0-7.8,0.9-7.8,2.8v16.8l-7.2-10.8c-1.7-0.1-3.5-0.1-5.2-0.1c-0.1,0-0.1,0-0.2,0
	c-4.8,0-9.5,0.2-13.8,0.6v-6l18.6,2.8l-7.6-20.9l5.4,1L55.2,91.3z" />
	<path d="M158.6,152.2v-10.6l19.7,3l-8-22.2l5.7,1.1l-14.3-44.9l5,0.9l-16.3-37.8l-14.2,34.1l5.2-1.1l-13.2,41.6l6.7-1.6l-9.5,29.9
	l20.2-3.1v20.6l-6.4-9.3c-8.2,1.3-13.8,3.7-13.8,6.6c0,4.1,11.8,7.5,26.4,7.5c14.6,0,26.5-3.3,26.5-7.5
	C178.3,156,169.9,153.1,158.6,152.2z" />
</svg>
