<?xml version="1.0" encoding="utf-8"?>
<!-- Generator: Adobe Illustrator 23.0.0, SVG Export Plug-In . SVG Version: 6.00 Build 0) -->
<svg version="1.1" id="Layer_1" xmlns="http://www.w3.org/2000/svg" xmlns:xlink="http://www.w3.org/1999/xlink" x="0px" y="0px" viewBox="0 0 200 200" style="enable-background:new 0 0 200 200;fill: #FFFFFF;" xml:space="preserve">
	<style type="text/css">
		.st0{clip-path:url(#SVGID_2_);}
		.st1{clip-path:url(#SVGID_4_);}
	</style>
	<g>
		<g>
			<defs>
				<rect id="SVGID_1_" x="28" y="14.3" width="145.6" height="172.3" />
			</defs>
			<clipPath id="SVGID_2_">
				<use xlink:href="#SVGID_1_" style="overflow:visible;" />
			</clipPath>
			<g class="st0">
				<defs>
					<rect id="SVGID_3_" x="28" y="14.3" width="145.6" height="172.3" />
				</defs>
				<clipPath id="SVGID_4_">
					<use xlink:href="#SVGID_3_" style="overflow:visible;" />
				</clipPath>
				<path class="st1" d="M156.7,99.8c2.2-3.4,3.5-7.3,3.5-11.5c0-6.8-3.4-13-8.9-17.3c1.5-2.9,2.3-6.1,2.3-9.5
				c0-12.5-11.5-22.7-26.1-23.6c-0.1-13-12.6-23.6-28.2-23.6c-13.6,0-25,8.2-27.6,19C59.3,35.8,50,45.2,50,56.4
				c0,4.9,1.8,9.5,4.8,13.2C47.6,73.9,43,81,43,88.9c0,4.3,1.4,8.4,3.8,11.9C35.9,104,28,112.8,28,123.1c0,13.1,12.6,23.7,28.2,23.7
				c9.2,0,17.4-3.7,22.5-9.5c2,2.8,4.8,5.3,8,7.2l1.6-22.9l-29-24.4l8-8.7l22.2,15.2l3-43.5h14.5l2.2,32.6L128,78.1l5.8,5.4l2.5,2.3
				l-26,25.9l2.4,35.6c5.4-1.7,9.9-4.8,13.2-8.7c5.1,4.1,11.9,6.6,19.5,6.6c15.6,0,28.2-10.6,28.2-23.7
				C173.6,111.8,166.6,103.4,156.7,99.8" />
				<polygon class="st1" points="130.8,85.8 127.8,83.1 105.4,100.7 102.9,63.9 96.4,63.9 93.2,110.9 67.9,93.6 64.8,97 92.5,120.3 
				88,186.6 111.3,186.6 106.1,110.4 			" />
			</g>
		</g>
	</g>
</svg>
