<?xml version="1.0" encoding="utf-8"?>
<!-- Generator: Adobe Illustrator 23.0.0, SVG Export Plug-In . SVG Version: 6.00 Build 0) -->
<svg version="1.1" id="Layer_1" xmlns="http://www.w3.org/2000/svg" xmlns:xlink="http://www.w3.org/1999/xlink" x="0px" y="0px" viewBox="0 0 200 200" style="enable-background:new 0 0 200 200;fill: #FFFFFF;" xml:space="preserve">
	<style type="text/css">
		.st0{clip-path:url(#SVGID_2_);fill:#FFFFFF;}
		.st1{clip-path:url(#SVGID_2_);}
		.st2{clip-path:url(#SVGID_4_);fill:#FFFFFF;}
	</style>
	<g>
		<g>
			<defs>
				<rect id="SVGID_1_" x="14.7" y="7.7" width="169.5" height="179.3" />
			</defs>
			<clipPath id="SVGID_2_">
				<use xlink:href="#SVGID_1_" style="overflow:visible;" />
			</clipPath>
			<polygon class="st0" points="143.7,100.3 149.8,100.3 143.7,109.4 149.8,109.4 143.7,118.4 184.2,118.4 178.1,109.4 184.2,109.4 
			178.1,100.3 184.2,100.3 164,70.1 		" />
			<rect x="160.5" y="120" class="st0" width="6.9" height="15" />
			<polygon class="st0" points="138.6,45.3 135.3,40.5 138.6,40.5 135.3,35.6 138.6,35.6 127.7,19.4 116.8,35.6 120.1,35.6 
			116.8,40.5 120.1,40.5 116.8,45.3 		" />
			<rect x="125.8" y="46.2" class="st0" width="3.7" height="8.1" />
			<polygon class="st0" points="14.7,127 22.3,127 14.7,138.4 22.3,138.4 14.7,149.7 65.3,149.7 57.7,138.4 65.3,138.4 57.7,127 
			65.3,127 40,89.2 		" />
			<rect x="35.7" y="151.7" class="st0" width="8.6" height="18.8" />
			<g class="st1">
				<defs>
					<rect id="SVGID_3_" x="14.7" y="7.7" width="169.5" height="179.3" />
				</defs>
				<clipPath id="SVGID_4_">
					<use xlink:href="#SVGID_3_" style="overflow:visible;" />
				</clipPath>
				<path class="st2" d="M118.6,130.2c-9-15.9,13-30.9,12-46.8c-1-15.9-33.9-22.9-39.9-35.9c-6-13,19.9-39.9,19.9-39.9
				S58.9,28.6,58.9,50.5s31.9,10,34.9,25.9c3,15.9-27.9,23.9-24.9,42.8c3,18.9,20.9,19.9,20.9,29.9c0,10-30.9,37.9-30.9,37.9h83.7
				c0,0,6-7,5-19.9C146.5,154.1,127.6,146.1,118.6,130.2" />
			</g>
		</g>
	</g>
</svg>
